<mxfile host="app.diagrams.net" agent="Mozilla/5.0 (Windows NT 10.0; Win64; x64) AppleWebKit/537.36 (KHTML, like Gecko) Chrome/137.0.0.0 Safari/537.36" version="27.0.5">
  <diagram name="第 1 页" id="Q2y9unoQX5xtHPh_ZAwQ">
    <mxGraphModel dx="2239" dy="763" grid="1" gridSize="10" guides="1" tooltips="1" connect="1" arrows="1" fold="1" page="1" pageScale="1" pageWidth="827" pageHeight="1169" math="0" shadow="0">
      <root>
        <mxCell id="0" />
        <mxCell id="1" parent="0" />
        <mxCell id="jZ9A5xIN_W6djx5ATPQO-5" style="edgeStyle=orthogonalEdgeStyle;rounded=0;orthogonalLoop=1;jettySize=auto;html=1;" edge="1" parent="1" source="jZ9A5xIN_W6djx5ATPQO-1" target="jZ9A5xIN_W6djx5ATPQO-3">
          <mxGeometry relative="1" as="geometry" />
        </mxCell>
        <mxCell id="jZ9A5xIN_W6djx5ATPQO-8" style="edgeStyle=orthogonalEdgeStyle;rounded=0;orthogonalLoop=1;jettySize=auto;html=1;exitX=0.5;exitY=1;exitDx=0;exitDy=0;" edge="1" parent="1" source="jZ9A5xIN_W6djx5ATPQO-1" target="jZ9A5xIN_W6djx5ATPQO-6">
          <mxGeometry relative="1" as="geometry" />
        </mxCell>
        <mxCell id="jZ9A5xIN_W6djx5ATPQO-10" style="edgeStyle=orthogonalEdgeStyle;rounded=0;orthogonalLoop=1;jettySize=auto;html=1;exitX=0.5;exitY=1;exitDx=0;exitDy=0;" edge="1" parent="1" source="jZ9A5xIN_W6djx5ATPQO-1" target="jZ9A5xIN_W6djx5ATPQO-2">
          <mxGeometry relative="1" as="geometry" />
        </mxCell>
        <mxCell id="jZ9A5xIN_W6djx5ATPQO-12" style="edgeStyle=orthogonalEdgeStyle;rounded=0;orthogonalLoop=1;jettySize=auto;html=1;exitX=0.5;exitY=1;exitDx=0;exitDy=0;" edge="1" parent="1" source="jZ9A5xIN_W6djx5ATPQO-1" target="jZ9A5xIN_W6djx5ATPQO-11">
          <mxGeometry relative="1" as="geometry" />
        </mxCell>
        <mxCell id="jZ9A5xIN_W6djx5ATPQO-1" value="&lt;p class=&quot;MsoNormal&quot;&gt;&lt;span style=&quot;mso-spacerun:&#39;yes&#39;;font-family:宋体;mso-hansi-font-family:&#39;Times New Roman&#39;;&lt;br/&gt;mso-bidi-font-family:&#39;Times New Roman&#39;;letter-spacing:0.0000pt;font-size:10.5000pt;&quot;&gt;标准数字化&lt;/span&gt;&lt;span style=&quot;mso-spacerun:&#39;yes&#39;;font-family:宋体;mso-hansi-font-family:&#39;Times New Roman&#39;;&lt;br/&gt;mso-bidi-font-family:&#39;Times New Roman&#39;;letter-spacing:0.0000pt;font-size:10.5000pt;&quot;&gt;系统&lt;/span&gt;&lt;/p&gt;" style="rounded=0;whiteSpace=wrap;html=1;" vertex="1" parent="1">
          <mxGeometry x="270" y="250" width="135" height="40" as="geometry" />
        </mxCell>
        <mxCell id="jZ9A5xIN_W6djx5ATPQO-20" style="edgeStyle=orthogonalEdgeStyle;rounded=0;orthogonalLoop=1;jettySize=auto;html=1;exitX=0.5;exitY=1;exitDx=0;exitDy=0;" edge="1" parent="1" source="jZ9A5xIN_W6djx5ATPQO-2" target="jZ9A5xIN_W6djx5ATPQO-16">
          <mxGeometry relative="1" as="geometry" />
        </mxCell>
        <mxCell id="jZ9A5xIN_W6djx5ATPQO-21" style="edgeStyle=orthogonalEdgeStyle;rounded=0;orthogonalLoop=1;jettySize=auto;html=1;exitX=0.5;exitY=1;exitDx=0;exitDy=0;" edge="1" parent="1" source="jZ9A5xIN_W6djx5ATPQO-2" target="jZ9A5xIN_W6djx5ATPQO-18">
          <mxGeometry relative="1" as="geometry" />
        </mxCell>
        <mxCell id="jZ9A5xIN_W6djx5ATPQO-22" style="edgeStyle=orthogonalEdgeStyle;rounded=0;orthogonalLoop=1;jettySize=auto;html=1;exitX=0.5;exitY=1;exitDx=0;exitDy=0;" edge="1" parent="1" source="jZ9A5xIN_W6djx5ATPQO-2" target="jZ9A5xIN_W6djx5ATPQO-15">
          <mxGeometry relative="1" as="geometry" />
        </mxCell>
        <mxCell id="jZ9A5xIN_W6djx5ATPQO-2" value="&lt;font face=&quot;宋体&quot;&gt;&lt;span style=&quot;font-size: 14px;&quot;&gt;XML转换引擎&lt;/span&gt;&lt;/font&gt;" style="rounded=0;whiteSpace=wrap;html=1;" vertex="1" parent="1">
          <mxGeometry x="159" y="400" width="135" height="40" as="geometry" />
        </mxCell>
        <mxCell id="jZ9A5xIN_W6djx5ATPQO-33" style="edgeStyle=orthogonalEdgeStyle;rounded=0;orthogonalLoop=1;jettySize=auto;html=1;" edge="1" parent="1" source="jZ9A5xIN_W6djx5ATPQO-3" target="jZ9A5xIN_W6djx5ATPQO-30">
          <mxGeometry relative="1" as="geometry" />
        </mxCell>
        <mxCell id="jZ9A5xIN_W6djx5ATPQO-34" style="edgeStyle=orthogonalEdgeStyle;rounded=0;orthogonalLoop=1;jettySize=auto;html=1;entryX=0.5;entryY=0;entryDx=0;entryDy=0;" edge="1" parent="1" source="jZ9A5xIN_W6djx5ATPQO-3" target="jZ9A5xIN_W6djx5ATPQO-32">
          <mxGeometry relative="1" as="geometry" />
        </mxCell>
        <mxCell id="jZ9A5xIN_W6djx5ATPQO-35" style="edgeStyle=orthogonalEdgeStyle;rounded=0;orthogonalLoop=1;jettySize=auto;html=1;exitX=0.5;exitY=1;exitDx=0;exitDy=0;" edge="1" parent="1" source="jZ9A5xIN_W6djx5ATPQO-3" target="jZ9A5xIN_W6djx5ATPQO-31">
          <mxGeometry relative="1" as="geometry" />
        </mxCell>
        <mxCell id="jZ9A5xIN_W6djx5ATPQO-3" value="&lt;p class=&quot;MsoNormal&quot;&gt;&lt;font face=&quot;宋体&quot;&gt;&lt;span style=&quot;font-size: 14px;&quot;&gt;XML可视化编辑器&lt;/span&gt;&lt;/font&gt;&lt;/p&gt;" style="rounded=0;whiteSpace=wrap;html=1;" vertex="1" parent="1">
          <mxGeometry x="390" y="400" width="135" height="40" as="geometry" />
        </mxCell>
        <mxCell id="jZ9A5xIN_W6djx5ATPQO-37" style="edgeStyle=orthogonalEdgeStyle;rounded=0;orthogonalLoop=1;jettySize=auto;html=1;entryX=0.5;entryY=0;entryDx=0;entryDy=0;" edge="1" parent="1" source="jZ9A5xIN_W6djx5ATPQO-6" target="jZ9A5xIN_W6djx5ATPQO-36">
          <mxGeometry relative="1" as="geometry" />
        </mxCell>
        <mxCell id="jZ9A5xIN_W6djx5ATPQO-39" style="edgeStyle=orthogonalEdgeStyle;rounded=0;orthogonalLoop=1;jettySize=auto;html=1;exitX=0.5;exitY=1;exitDx=0;exitDy=0;entryX=0.5;entryY=0;entryDx=0;entryDy=0;" edge="1" parent="1" source="jZ9A5xIN_W6djx5ATPQO-6" target="jZ9A5xIN_W6djx5ATPQO-38">
          <mxGeometry relative="1" as="geometry" />
        </mxCell>
        <mxCell id="jZ9A5xIN_W6djx5ATPQO-6" value="&lt;p class=&quot;MsoNormal&quot;&gt;&lt;font face=&quot;宋体&quot;&gt;&lt;span style=&quot;font-size: 14px;&quot;&gt;标准知识图谱&lt;/span&gt;&lt;/font&gt;&lt;/p&gt;" style="rounded=0;whiteSpace=wrap;html=1;" vertex="1" parent="1">
          <mxGeometry x="620" y="400" width="135" height="40" as="geometry" />
        </mxCell>
        <mxCell id="jZ9A5xIN_W6djx5ATPQO-26" style="edgeStyle=orthogonalEdgeStyle;rounded=0;orthogonalLoop=1;jettySize=auto;html=1;" edge="1" parent="1" source="jZ9A5xIN_W6djx5ATPQO-11" target="jZ9A5xIN_W6djx5ATPQO-24">
          <mxGeometry relative="1" as="geometry" />
        </mxCell>
        <mxCell id="jZ9A5xIN_W6djx5ATPQO-28" style="edgeStyle=orthogonalEdgeStyle;rounded=0;orthogonalLoop=1;jettySize=auto;html=1;exitX=0.5;exitY=1;exitDx=0;exitDy=0;" edge="1" parent="1" source="jZ9A5xIN_W6djx5ATPQO-11" target="jZ9A5xIN_W6djx5ATPQO-23">
          <mxGeometry relative="1" as="geometry" />
        </mxCell>
        <mxCell id="jZ9A5xIN_W6djx5ATPQO-29" style="edgeStyle=orthogonalEdgeStyle;rounded=0;orthogonalLoop=1;jettySize=auto;html=1;exitX=0.5;exitY=1;exitDx=0;exitDy=0;entryX=0.5;entryY=0;entryDx=0;entryDy=0;" edge="1" parent="1" source="jZ9A5xIN_W6djx5ATPQO-11" target="jZ9A5xIN_W6djx5ATPQO-25">
          <mxGeometry relative="1" as="geometry" />
        </mxCell>
        <mxCell id="jZ9A5xIN_W6djx5ATPQO-11" value="&lt;font face=&quot;宋体&quot;&gt;&lt;span style=&quot;font-size: 14px;&quot;&gt;标准管理&lt;/span&gt;&lt;/font&gt;" style="rounded=0;whiteSpace=wrap;html=1;" vertex="1" parent="1">
          <mxGeometry x="-70" y="400" width="135" height="40" as="geometry" />
        </mxCell>
        <mxCell id="jZ9A5xIN_W6djx5ATPQO-15" value="&lt;font face=&quot;宋体&quot;&gt;&lt;span style=&quot;font-size: 14px;&quot;&gt;前置页转换&lt;/span&gt;&lt;/font&gt;" style="rounded=0;whiteSpace=wrap;html=1;textDirection=vertical-lr;spacingTop=0;" vertex="1" parent="1">
          <mxGeometry x="140" y="600" width="40" height="135" as="geometry" />
        </mxCell>
        <mxCell id="jZ9A5xIN_W6djx5ATPQO-16" value="&lt;font face=&quot;宋体&quot;&gt;&lt;span style=&quot;font-size: 14px;&quot;&gt;正文转换&lt;/span&gt;&lt;/font&gt;" style="rounded=0;whiteSpace=wrap;html=1;textDirection=vertical-lr;" vertex="1" parent="1">
          <mxGeometry x="206.5" y="600" width="40" height="135" as="geometry" />
        </mxCell>
        <mxCell id="jZ9A5xIN_W6djx5ATPQO-18" value="&lt;font face=&quot;宋体&quot;&gt;&lt;span style=&quot;font-size: 14px;&quot;&gt;后置页转换&lt;/span&gt;&lt;/font&gt;" style="rounded=0;whiteSpace=wrap;html=1;textDirection=vertical-rl;" vertex="1" parent="1">
          <mxGeometry x="270" y="600" width="40" height="135" as="geometry" />
        </mxCell>
        <mxCell id="jZ9A5xIN_W6djx5ATPQO-23" value="&lt;font face=&quot;宋体&quot;&gt;&lt;span style=&quot;font-size: 14px;&quot;&gt;标准搜索&lt;/span&gt;&lt;/font&gt;" style="rounded=0;whiteSpace=wrap;html=1;textDirection=vertical-rl;" vertex="1" parent="1">
          <mxGeometry x="-100" y="600" width="40" height="135" as="geometry" />
        </mxCell>
        <mxCell id="jZ9A5xIN_W6djx5ATPQO-24" value="&lt;font face=&quot;宋体&quot;&gt;&lt;span style=&quot;font-size: 14px;&quot;&gt;标准上传&lt;/span&gt;&lt;/font&gt;" style="rounded=0;whiteSpace=wrap;html=1;textDirection=vertical-rl;" vertex="1" parent="1">
          <mxGeometry x="-22.5" y="600" width="40" height="135" as="geometry" />
        </mxCell>
        <mxCell id="jZ9A5xIN_W6djx5ATPQO-25" value="&lt;font face=&quot;宋体&quot;&gt;&lt;span style=&quot;font-size: 14px;&quot;&gt;标准预览&lt;/span&gt;&lt;/font&gt;" style="rounded=0;whiteSpace=wrap;html=1;textDirection=vertical-rl;" vertex="1" parent="1">
          <mxGeometry x="60" y="600" width="40" height="135" as="geometry" />
        </mxCell>
        <mxCell id="jZ9A5xIN_W6djx5ATPQO-30" value="&lt;font face=&quot;宋体&quot;&gt;&lt;span style=&quot;font-size: 14px;&quot;&gt;节点修改&lt;/span&gt;&lt;/font&gt;" style="rounded=0;whiteSpace=wrap;html=1;textDirection=vertical-rl;" vertex="1" parent="1">
          <mxGeometry x="437.5" y="600" width="40" height="135" as="geometry" />
        </mxCell>
        <mxCell id="jZ9A5xIN_W6djx5ATPQO-31" value="&lt;font face=&quot;宋体&quot;&gt;&lt;span style=&quot;font-size: 14px;&quot;&gt;节点删除&lt;/span&gt;&lt;/font&gt;" style="rounded=0;whiteSpace=wrap;html=1;textDirection=vertical-rl;spacing=2;horizontal=1;" vertex="1" parent="1">
          <mxGeometry x="520" y="600" width="40" height="135" as="geometry" />
        </mxCell>
        <mxCell id="jZ9A5xIN_W6djx5ATPQO-32" value="&lt;font face=&quot;宋体&quot;&gt;&lt;span style=&quot;font-size: 14px;&quot;&gt;节点添加&lt;/span&gt;&lt;/font&gt;" style="rounded=0;whiteSpace=wrap;html=1;textDirection=vertical-rl;" vertex="1" parent="1">
          <mxGeometry x="365" y="600" width="40" height="135" as="geometry" />
        </mxCell>
        <mxCell id="jZ9A5xIN_W6djx5ATPQO-36" value="&lt;font face=&quot;宋体&quot;&gt;&lt;span style=&quot;font-size: 14px;&quot;&gt;知识图谱构建&lt;/span&gt;&lt;/font&gt;" style="rounded=0;whiteSpace=wrap;html=1;textDirection=vertical-rl;spacing=2;horizontal=1;" vertex="1" parent="1">
          <mxGeometry x="600" y="600" width="40" height="135" as="geometry" />
        </mxCell>
        <mxCell id="jZ9A5xIN_W6djx5ATPQO-38" value="&lt;font face=&quot;宋体&quot;&gt;&lt;span style=&quot;font-size: 14px;&quot;&gt;知识查询&lt;/span&gt;&lt;/font&gt;" style="rounded=0;whiteSpace=wrap;html=1;textDirection=vertical-rl;spacing=2;horizontal=1;" vertex="1" parent="1">
          <mxGeometry x="740" y="600" width="40" height="135" as="geometry" />
        </mxCell>
      </root>
    </mxGraphModel>
  </diagram>
</mxfile>
